<?xml version="1.0" standalone="no"?>
<!DOCTYPE svg PUBLIC "-//W3C//DTD SVG 20010904//EN"
 "http://www.w3.org/TR/2001/REC-SVG-20010904/DTD/svg10.dtd">
<svg version="1.0" xmlns="http://www.w3.org/2000/svg"
 width="1024.000000pt" height="1024.000000pt" viewBox="0 0 1024.000000 1024.000000"
 preserveAspectRatio="xMidYMid meet">

<g transform="translate(0.000000,1024.000000) scale(0.100000,-0.100000)"
fill="#00a3e4" stroke="none">
<path d="M4952 7560 c-116 -10 -321 -48 -456 -86 -287 -81 -638 -264 -876
-458 -104 -84 -284 -265 -360 -361 -131 -166 -287 -418 -324 -523 l-15 -42
124 0 123 0 64 66 c158 165 319 246 546 274 151 19 346 -14 499 -85 223 -103
409 -275 543 -502 l42 -73 253 0 254 0 32 58 c166 294 393 482 684 568 131 39
342 45 470 15 167 -40 348 -147 451 -266 l48 -55 128 0 c81 0 128 4 128 10 0
17 -65 142 -134 258 -298 500 -754 873 -1316 1075 -275 99 -630 149 -908 127z"/>
<path d="M3719 6033 c-43 -22 -61 -40 -86 -83 -32 -53 -33 -56 -34 -185 -1
-102 -3 -120 -9 -82 -10 57 -21 72 -71 98 -101 51 -224 -8 -248 -119 -15 -71
-15 -1041 0 -1095 15 -54 72 -114 121 -128 77 -20 167 14 193 74 14 31 14 28
15 -58 0 -49 5 -106 10 -126 16 -58 82 -124 148 -149 64 -24 107 -22 181 11
59 26 87 53 117 111 l24 47 0 763 0 763 -24 50 c-44 93 -112 135 -219 135 -49
0 -75 -6 -118 -27z"/>
<path d="M6273 6035 c-61 -28 -106 -88 -122 -163 -6 -29 -8 -326 -5 -784 4
-833 0 -785 84 -861 47 -42 103 -67 152 -67 50 0 130 32 169 67 67 60 79 95
79 225 1 110 1 112 15 73 35 -97 156 -121 251 -50 68 52 67 40 68 640 l1 540
-23 47 c-38 77 -107 109 -195 89 -65 -14 -92 -40 -105 -101 -8 -39 -10 -29
-10 72 -1 104 -4 123 -26 167 -61 120 -205 166 -333 106z"/>
<path d="M2662 5716 c-59 -19 -107 -58 -139 -114 l-28 -47 -3 -412 c-2 -264 1
-427 8 -451 15 -58 63 -118 122 -152 119 -68 283 -16 348 110 17 33 19 72 21
465 3 477 5 459 -65 533 -65 70 -173 97 -264 68z"/>
<path d="M7402 5716 c-65 -21 -111 -62 -141 -125 l-26 -56 -3 -395 c-2 -268 0
-409 8 -440 40 -157 218 -237 361 -162 61 32 113 94 129 153 7 26 10 180 8
447 -3 374 -4 410 -22 442 -26 49 -74 98 -118 121 -50 26 -141 33 -196 15z"/>
<path d="M4458 5364 c-56 -17 -128 -92 -146 -152 -19 -63 -15 -156 9 -207 26
-56 99 -122 150 -135 25 -7 256 -10 661 -8 l623 3 48 28 c162 95 164 352 3
452 l-49 30 -626 2 c-523 2 -634 0 -673 -13z"/>
<path d="M4852 4458 c-5 -7 -20 -33 -32 -58 -40 -80 -132 -203 -215 -286 -135
-136 -305 -234 -499 -287 -118 -32 -357 -32 -469 1 -150 43 -268 116 -392 241
l-80 81 -127 0 c-71 0 -128 -3 -128 -6 0 -14 72 -159 124 -249 352 -609 924
-1038 1581 -1186 392 -88 778 -73 1171 47 637 193 1145 624 1462 1241 39 77
72 144 72 147 0 3 -58 6 -128 6 l-128 0 -100 -97 c-102 -101 -170 -147 -272
-189 -125 -50 -177 -59 -347 -58 -144 1 -169 3 -250 28 -291 87 -557 309 -688
574 l-31 62 -257 0 c-193 0 -259 -3 -267 -12z"/>
</g>
</svg>
